<svg id="Layer_1" data-name="Layer 1" xmlns="http://www.w3.org/2000/svg" xmlns:xlink="http://www.w3.org/1999/xlink" viewBox="0 0 1608 339"><defs><style>.cls-1{fill:#727272;stroke:#727272;stroke-linejoin:bevel;}.cls-1,.cls-10,.cls-6{stroke-width:8px;}.cls-2{fill:url(#linear-gradient);}.cls-3{fill:#6d6d6d;}.cls-4{fill:#999;}.cls-5{fill:#3d3d3d;}.cls-10,.cls-6{fill:#fff;stroke-miterlimit:10;}.cls-6{stroke:#4a4a4a;}.cls-7{fill:url(#linear-gradient-2);}.cls-8{fill:url(#linear-gradient-3);}.cls-9{fill:url(#linear-gradient-4);}.cls-10{stroke:#00d1b2;}</style><linearGradient id="linear-gradient" x1="677" y1="37" x2="711" y2="37" gradientUnits="userSpaceOnUse"><stop offset="0" stop-color="#999"/><stop offset="0.2" stop-color="#959595"/><stop offset="0.4" stop-color="#8a8a8a"/><stop offset="0.59" stop-color="#767676"/><stop offset="0.79" stop-color="#5b5b5b"/><stop offset="0.97" stop-color="#393939"/><stop offset="1" stop-color="#333"/></linearGradient><linearGradient id="linear-gradient-2" x1="847" y1="50" x2="872" y2="50" gradientUnits="userSpaceOnUse"><stop offset="0" stop-color="#00d1b2"/><stop offset="1" stop-color="#0c8974"/></linearGradient><linearGradient id="linear-gradient-3" y1="23" y2="23" xlink:href="#linear-gradient-2"/><linearGradient id="linear-gradient-4" x1="876" y1="653" x2="910" y2="653" gradientTransform="translate(20 -616)" xlink:href="#linear-gradient"/></defs><title>404</title><polygon class="cls-1" points="682 34 656 37 682 40 682 34"/><rect class="cls-2" x="677" y="16" width="34" height="42" rx="6"/><rect class="cls-3" x="710" y="11.5" width="28" height="51" rx="2.61"/><rect class="cls-4" x="705" y="6" width="10" height="62"/><rect class="cls-5" x="715" y="11.5" width="2" height="51"/><path class="cls-6" d="M10,330c100.5-26.5,81.81-107.86,198-153,139-54,144.5,29.5,283-6C606.16,141.48,572,37,656,37"/><polygon class="cls-1" points="925 40 951 37 925 34 925 40"/><rect class="cls-7" x="847" y="48" width="25" height="4"/><rect class="cls-8" x="847" y="21" width="25" height="4"/><rect class="cls-9" x="896" y="16" width="34" height="42" rx="6" transform="translate(1826 74) rotate(180)"/><rect class="cls-3" x="869" y="11.5" width="28" height="51" rx="2.61" transform="translate(1766 74) rotate(180)"/><rect class="cls-4" x="892" y="6" width="10" height="62" transform="translate(1794 74) rotate(180)"/><rect class="cls-5" x="890" y="11.5" width="2" height="51" transform="translate(1782 74) rotate(180)"/><path class="cls-10" d="M1596,327c-212,11-245-74-286-132-79.11-111.91-142-20-231-54C977.69,102.3,1031,37,951,37"/></svg>