<?xml version="1.0" encoding="utf-8"?>
<!-- Generator: Adobe Illustrator 23.0.3, SVG Export Plug-In . SVG Version: 6.00 Build 0)  -->
<svg version="1.1" id="FLAT" xmlns="http://www.w3.org/2000/svg" xmlns:xlink="http://www.w3.org/1999/xlink" x="0px" y="0px"
	 viewBox="0 0 1257 316" enable-background="new 0 0 1257 316" xml:space="preserve">
<path fill="#4A4A4A" d="M228.9,183.9v117h-55.6v-25.5c-11.1,18.7-32.4,28.6-62.5,28.6c-48,0-76.6-26.7-76.6-62.1
	c0-36.2,25.5-61.3,88-61.3h47.2c0-25.5-15.2-40.4-47.2-40.4c-21.7,0-44.2,7.2-59.1,19.1l-21.3-41.5c22.5-16,55.6-24.8,88.4-24.8
	C192.7,92.8,228.9,121.8,228.9,183.9z M169.5,236.1v-21h-40.8c-27.8,0-36.6,10.3-36.6,24c0,14.9,12.6,24.8,33.5,24.8
	C145.5,263.9,162.6,254.7,169.5,236.1z"/>
<path fill="#4A4A4A" d="M253.3,198.3c0-61.7,47.6-105.5,114.3-105.5c43.1,0,77,18.7,91.8,52.2l-46.1,24.8
	c-11.1-19.4-27.4-28.2-46.1-28.2c-30.1,0-53.7,21-53.7,56.8c0,35.8,23.6,56.8,53.7,56.8c18.7,0,35.1-8.4,46.1-28.2l46.1,25.1
	c-14.9,32.8-48.8,51.8-91.8,51.8C300.9,303.9,253.3,260.1,253.3,198.3z"/>
<path fill="#4A4A4A" d="M635.9,290.9c-12.2,8.8-30.1,13-48.4,13c-48.4,0-76.6-24.8-76.6-73.5v-84.2h-31.6v-45.7h31.6V50.5h59.4v49.9
	h51.1v45.7h-51.1v83.4c0,17.5,9.5,27.1,25.5,27.1c8.8,0,17.5-2.7,24-7.6L635.9,290.9z"/>
<path fill="#4A4A4A" d="M738.7,100.4h52.6v45.7h-51.1v154.7h-59.4V146.1h-31.6v-45.7h31.6v-9.1c0-46.1,28.2-76.2,79.3-76.2
	c16.8,0,34.3,3.4,45.3,11.1l-15.6,43.1c-6.5-4.6-14.9-7.2-24-7.2c-17.5,0-27.1,9.5-27.1,29.7V100.4z"/>
<path fill="#4A4A4A" d="M1026.1,95.8v205h-56.4v-24.4c-15.6,17.9-38.5,27.4-63.6,27.4c-51.4,0-87.6-29-87.6-92.2V95.8h59.4v107.1
	c0,34.3,15.2,49.5,41.5,49.5c27.4,0,47.2-17.5,47.2-55.3V95.8H1026.1z"/>
<path fill="#4A4A4A" d="M1059.2,18.1h59.4v282.7h-59.4V18.1z"/>
<path fill="#00D1B2" d="M1149.9,266.6c0-22.1,16.4-36.6,37-36.6c20.6,0,37,14.5,37,36.6c0,21.7-16.4,37.3-37,37.3
	C1166.3,303.9,1149.9,288.3,1149.9,266.6z"/>
</svg>
